<svg xmlns="http://www.w3.org/2000/svg" viewBox="0 0 890.52 787.73"><defs><style>.cls-1{fill:#597099;}.cls-1,.cls-2,.cls-3,.cls-4,.cls-7{stroke:#231f20;stroke-miterlimit:10;stroke-width:4px;}.cls-2{fill:none;}.cls-3,.cls-4{fill:#2f3148;}.cls-4{font-size:140px;font-family:TacticSans-BldIt, Tactic Sans;font-style:italic;}.cls-5{letter-spacing:-0.01em;}.cls-6{letter-spacing:-0.02em;}.cls-7{fill:#fff;}</style></defs><g id="Layer_2" data-name="Layer 2"><path class="cls-1" d="M95.61,115.94S68.8,138.21,68.85,138.3c1.63,20.28,381.35,26,381.35,26S453,439.9,476.39,439.75c.09,0,22.22-24.21,22.22-24.21V115.94Z" transform="translate(-66.85 -113.94)"/><line class="cls-2" x1="407.56" y1="26.21" x2="431.76" y2="2"/><path class="cls-1" d="M442.68,366.92H105s-26.81,22.27-26.76,22.36c-.35,19.24,290.73,19.88,364.49,24.9Z" transform="translate(-66.85 -113.94)"/><path class="cls-1" d="M907.83,213l47.53-46.19V118h-403s-26.81,22.27-26.76,22.36c1.63,20.29,381.34,26.06,381.34,26.06S907.13,185.23,907.83,213Z" transform="translate(-66.85 -113.94)"/><line class="cls-2" x1="863.84" y1="76.47" x2="888.04" y2="52.26"/><line class="cls-2" x1="864.3" y1="28.27" x2="888.51" y2="4.06"/><path class="cls-1" d="M955.36,166.83S627.05,702.32,620.91,699.36c0,0-23.64,24.49-24.21,23.11C588.94,705.32,909,190.94,930.37,190.38,930.37,190.38,956,163.79,955.36,166.83Z" transform="translate(-66.85 -113.94)"/><path class="cls-2" d="M620.91,699.36" transform="translate(-66.85 -113.94)"/><polygon class="cls-1" points="82.15 537 82.15 301.6 45.87 301.6 45.87 537 35.55 537 35.55 559.54 35.55 575.07 35.55 607.95 418.07 607.95 441.1 583.75 441.1 575.07 441.1 559.54 441.1 537 82.15 537"/><line class="cls-2" x1="59.75" y1="559.54" x2="83.96" y2="535.33"/><line class="cls-2" x1="416.9" y1="560.78" x2="441.1" y2="536.57"/><line class="cls-2" x1="416.9" y1="607.95" x2="441.1" y2="583.75"/></g><g id="Layer_1" data-name="Layer 1"><rect class="cls-3" x="2" y="26.21" width="405.56" height="48.41"/><rect class="cls-3" x="312.5" y="253.64" width="275.4" height="48.41" transform="translate(105.51 614.1) rotate(-90)"/><rect class="cls-3" x="428.84" y="418.94" width="629.17" height="48.41" transform="translate(-93.95 723.34) rotate(-57.89)"/><path class="cls-3" d="M931.15,190.38c-.17.13-405.55,0-405.55,0V142H931.15S931.32,190.25,931.15,190.38Z" transform="translate(-66.85 -113.94)"/><rect class="cls-1" x="11.34" y="646.05" width="852.96" height="136.51"/><text class="cls-4" transform="translate(26.16 755.77)">action_<tspan class="cls-5" x="580.29" y="0">2</tspan><tspan class="cls-6" x="684.45" y="0">7</tspan><tspan x="780.77" y="0">:</tspan></text><rect class="cls-3" x="11.34" y="277.4" width="396.21" height="48.41"/><rect class="cls-3" x="-62.88" y="532.41" width="330.56" height="48.41" transform="translate(-521.06 545.07) rotate(-90)"/><rect class="cls-3" x="11.34" y="559.54" width="405.56" height="48.41"/><line class="cls-7" x1="806.62" y1="76.45" x2="864.3" y2="76.45"/></g></svg>